SubSource-HROTdd_VROTx_SLENn_SANGn.ufo
<glyph name="numbersign" format="2">
  <advance width="700"/>
  <unicode hex="0023"/>
  <outline>
    <contour>
      <point x="300" y="525" type="curve" smooth="yes"/>
      <point x="296" y="464"/>
      <point x="289" y="430"/>
      <point x="276" y="314" type="curve" smooth="yes"/>
      <point x="264" y="210"/>
      <point x="256" y="156"/>
      <point x="252" y="101" type="curve" smooth="yes"/>
      <point x="247" y="34"/>
      <point x="157" y="40"/>
      <point x="162" y="107" type="curve" smooth="yes"/>
      <point x="166" y="166"/>
      <point x="174" y="214"/>
      <point x="186" y="324" type="curve" smooth="yes"/>
      <point x="199" y="432"/>
      <point x="206" y="474"/>
      <point x="210" y="531" type="curve" smooth="yes"/>
      <point x="215" y="598"/>
      <point x="304" y="592"/>
    </contour>
    <contour>
      <point x="538" y="525" type="curve" smooth="yes"/>
      <point x="534" y="463"/>
      <point x="525" y="424"/>
      <point x="514" y="314" type="curve" smooth="yes"/>
      <point x="503" y="207"/>
      <point x="495" y="157"/>
      <point x="490" y="100" type="curve" smooth="yes"/>
      <point x="484" y="33"/>
      <point x="394" y="41"/>
      <point x="400" y="108" type="curve" smooth="yes"/>
      <point x="405" y="165"/>
      <point x="413" y="218"/>
      <point x="424" y="324" type="curve" smooth="yes"/>
      <point x="436" y="438"/>
      <point x="444" y="471"/>
      <point x="448" y="531" type="curve" smooth="yes"/>
      <point x="453" y="598"/>
      <point x="542" y="592"/>
    </contour>
    <contour>
      <point x="615" y="357" type="curve" smooth="yes"/>
      <point x="575" y="357"/>
      <point x="523" y="357"/>
      <point x="500" y="357" type="curve" smooth="yes"/>
      <point x="362" y="357"/>
      <point x="315" y="357"/>
      <point x="222" y="357" type="curve" smooth="yes"/>
      <point x="178" y="357"/>
      <point x="126" y="357"/>
      <point x="85" y="357" type="curve" smooth="yes"/>
      <point x="17" y="357"/>
      <point x="18" y="447"/>
      <point x="85" y="447" type="curve" smooth="yes"/>
      <point x="146" y="447"/>
      <point x="193" y="447"/>
      <point x="222" y="447" type="curve" smooth="yes"/>
      <point x="361" y="447"/>
      <point x="408" y="447"/>
      <point x="500" y="447" type="curve" smooth="yes"/>
      <point x="534" y="447"/>
      <point x="588" y="447"/>
      <point x="615" y="447" type="curve" smooth="yes"/>
      <point x="683" y="447"/>
      <point x="683" y="357"/>
    </contour>
    <contour>
      <point x="615" y="185" type="curve" smooth="yes"/>
      <point x="558" y="185"/>
      <point x="507" y="185"/>
      <point x="478" y="185" type="curve" smooth="yes"/>
      <point x="340" y="185"/>
      <point x="292" y="185"/>
      <point x="200" y="185" type="curve" smooth="yes"/>
      <point x="165" y="185"/>
      <point x="122" y="185"/>
      <point x="85" y="185" type="curve" smooth="yes"/>
      <point x="17" y="185"/>
      <point x="18" y="275"/>
      <point x="85" y="275" type="curve" smooth="yes"/>
      <point x="140" y="275"/>
      <point x="176" y="275"/>
      <point x="200" y="275" type="curve" smooth="yes"/>
      <point x="338" y="275"/>
      <point x="386" y="275"/>
      <point x="478" y="275" type="curve" smooth="yes"/>
      <point x="521" y="275"/>
      <point x="577" y="275"/>
      <point x="615" y="275" type="curve" smooth="yes"/>
      <point x="683" y="275"/>
      <point x="683" y="185"/>
    </contour>
  </outline>
</glyph>
<glyph name="dollar" format="2">
  <advance width="500"/>
  <unicode hex="0024"/>
  <outline>
    <contour>
      <point x="185" y="35" type="curve" smooth="yes"/>
      <point x="194" y="128" type="line" smooth="yes"/>
      <point x="201" y="196"/>
      <point x="290" y="187"/>
      <point x="284" y="120" type="curve" smooth="yes"/>
      <point x="275" y="27" type="line" smooth="yes"/>
      <point x="268" y="-41"/>
      <point x="179" y="-32"/>
    </contour>
    <contour>
      <point x="228" y="505" type="curve" smooth="yes"/>
      <point x="237" y="594" type="line" smooth="yes"/>
      <point x="244" y="661"/>
      <point x="334" y="652"/>
      <point x="327" y="584" type="curve" smooth="yes"/>
      <point x="318" y="495" type="line" smooth="yes"/>
      <point x="311" y="428"/>
      <point x="221" y="437"/>
    </contour>
    <contour>
      <point x="102" y="191" type="curve" smooth="yes"/>
      <point x="183" y="166"/>
      <point x="376" y="159"/>
      <point x="376" y="213" type="curve" smooth="yes"/>
      <point x="376" y="283"/>
      <point x="56" y="250"/>
      <point x="56" y="411" type="curve" smooth="yes"/>
      <point x="56" y="525"/>
      <point x="248" y="583"/>
      <point x="425" y="518" type="curve" smooth="yes"/>
      <point x="489" y="495"/>
      <point x="458" y="411"/>
      <point x="395" y="434" type="curve" smooth="yes"/>
      <point x="317" y="462"/>
      <point x="146" y="461"/>
      <point x="146" y="411" type="curve" smooth="yes"/>
      <point x="146" y="344"/>
      <point x="466" y="381"/>
      <point x="466" y="213" type="curve" smooth="yes"/>
      <point x="466" y="90"/>
      <point x="261" y="47"/>
      <point x="76" y="105" type="curve" smooth="yes"/>
      <point x="11" y="125"/>
      <point x="38" y="211"/>
    </contour>
  </outline>
</glyph>
<glyph name="period" format="2">
  <advance width="260"/>
  <unicode hex="002E"/>
  <outline>
    <contour>
      <point x="89" y="99" type="curve" smooth="yes"/>
      <point x="89" y="111"/>
      <point x="89" y="128"/>
      <point x="89" y="137" type="curve" smooth="yes"/>
      <point x="89" y="205"/>
      <point x="179" y="205"/>
      <point x="179" y="137" type="curve" smooth="yes"/>
      <point x="179" y="124"/>
      <point x="179" y="107"/>
      <point x="179" y="99" type="curve" smooth="yes"/>
      <point x="179" y="32"/>
      <point x="89" y="32"/>
    </contour>
  </outline>
</glyph>
<glyph name="five" format="2">
  <advance width="501"/>
  <unicode hex="0035"/>
  <outline>
    <contour>
      <point x="390" y="477" type="curve" smooth="yes"/>
      <point x="142" y="477" type="line"/>
      <point x="187" y="516" type="line"/>
      <point x="159" y="319" type="line"/>
      <point x="107" y="369" type="line"/>
      <point x="323" y="406"/>
      <point x="466" y="347"/>
      <point x="466" y="218" type="curve" smooth="yes"/>
      <point x="466" y="78"/>
      <point x="291" y="18"/>
      <point x="83" y="75" type="curve" smooth="yes"/>
      <point x="18" y="92"/>
      <point x="42" y="179"/>
      <point x="107" y="161" type="curve" smooth="yes"/>
      <point x="226" y="129"/>
      <point x="376" y="138"/>
      <point x="376" y="218" type="curve" smooth="yes"/>
      <point x="376" y="291"/>
      <point x="244" y="301"/>
      <point x="121" y="281" type="curve" smooth="yes"/>
      <point x="91" y="276"/>
      <point x="65" y="301"/>
      <point x="69" y="331" type="curve" smooth="yes"/>
      <point x="97" y="528" type="line" smooth="yes"/>
      <point x="101" y="551"/>
      <point x="120" y="567"/>
      <point x="142" y="567" type="curve" smooth="yes"/>
      <point x="390" y="567" type="line" smooth="yes"/>
      <point x="458" y="567"/>
      <point x="458" y="477"/>
    </contour>
  </outline>
</glyph>
<glyph name="at" format="2">
  <advance width="956"/>
  <unicode hex="0040"/>
  <outline>
    <contour>
      <point x="675" y="376" type="curve" smooth="yes"/>
      <point x="675" y="338"/>
      <point x="675" y="292"/>
      <point x="675" y="260" type="curve" smooth="yes"/>
      <point x="675" y="169"/>
      <point x="597" y="100"/>
      <point x="482" y="100" type="curve" smooth="yes"/>
      <point x="366" y="100"/>
      <point x="288" y="172"/>
      <point x="288" y="262" type="curve" smooth="yes"/>
      <point x="288" y="354"/>
      <point x="370" y="424"/>
      <point x="482" y="424" type="curve" smooth="yes"/>
      <point x="595" y="424"/>
      <point x="675" y="356"/>
      <point x="675" y="264" type="curve" smooth="yes"/>
      <point x="675" y="216"/>
      <point x="704" y="201"/>
      <point x="739" y="201" type="curve" smooth="yes"/>
      <point x="791" y="201"/>
      <point x="822" y="235"/>
      <point x="822" y="294" type="curve" smooth="yes"/>
      <point x="822" y="410"/>
      <point x="683" y="484"/>
      <point x="500" y="484" type="curve" smooth="yes"/>
      <point x="307" y="484"/>
      <point x="157" y="391"/>
      <point x="157" y="257" type="curve" smooth="yes"/>
      <point x="157" y="121"/>
      <point x="303" y="41"/>
      <point x="488" y="41" type="curve" smooth="yes"/>
      <point x="543" y="41"/>
      <point x="602" y="49"/>
      <point x="664" y="63" type="curve" smooth="yes"/>
      <point x="730" y="78"/>
      <point x="750" y="-10"/>
      <point x="684" y="-25" type="curve" smooth="yes"/>
      <point x="616" y="-41"/>
      <point x="549" y="-49"/>
      <point x="488" y="-49" type="curve" smooth="yes"/>
      <point x="240" y="-49"/>
      <point x="67" y="75"/>
      <point x="67" y="257" type="curve" smooth="yes"/>
      <point x="67" y="435"/>
      <point x="244" y="574"/>
      <point x="500" y="574" type="curve" smooth="yes"/>
      <point x="752" y="574"/>
      <point x="912" y="453"/>
      <point x="912" y="294" type="curve" smooth="yes"/>
      <point x="912" y="181"/>
      <point x="838" y="111"/>
      <point x="739" y="111" type="curve" smooth="yes"/>
      <point x="662" y="111"/>
      <point x="585" y="158"/>
      <point x="585" y="264" type="curve" smooth="yes"/>
      <point x="585" y="309"/>
      <point x="538" y="334"/>
      <point x="482" y="334" type="curve" smooth="yes"/>
      <point x="427" y="334"/>
      <point x="378" y="307"/>
      <point x="378" y="262" type="curve" smooth="yes"/>
      <point x="378" y="217"/>
      <point x="425" y="190"/>
      <point x="482" y="190" type="curve" smooth="yes"/>
      <point x="538" y="190"/>
      <point x="585" y="215"/>
      <point x="585" y="260" type="curve" smooth="yes"/>
      <point x="585" y="308"/>
      <point x="585" y="351"/>
      <point x="585" y="376" type="curve" smooth="yes"/>
      <point x="585" y="444"/>
      <point x="675" y="444"/>
    </contour>
  </outline>
</glyph>
<glyph name="J" format="2">
  <advance width="448"/>
  <unicode hex="004A"/>
  <outline>
    <contour>
      <point x="84" y="166" type="curve" smooth="yes"/>
      <point x="122" y="152"/>
      <point x="157" y="147"/>
      <point x="188" y="147" type="curve" smooth="yes"/>
      <point x="247" y="147"/>
      <point x="287" y="168"/>
      <point x="287" y="217" type="curve" smooth="yes"/>
      <point x="287" y="301"/>
      <point x="287" y="347"/>
      <point x="287" y="403" type="curve" smooth="yes"/>
      <point x="287" y="453"/>
      <point x="287" y="497"/>
      <point x="287" y="526" type="curve" smooth="yes"/>
      <point x="287" y="594"/>
      <point x="377" y="594"/>
      <point x="377" y="526" type="curve" smooth="yes"/>
      <point x="377" y="482"/>
      <point x="377" y="437"/>
      <point x="377" y="403" type="curve" smooth="yes"/>
      <point x="377" y="319"/>
      <point x="377" y="273"/>
      <point x="377" y="217" type="curve" smooth="yes"/>
      <point x="377" y="121"/>
      <point x="304" y="57"/>
      <point x="188" y="57" type="curve" smooth="yes"/>
      <point x="149" y="57"/>
      <point x="104" y="64"/>
      <point x="54" y="80" type="curve" smooth="yes"/>
      <point x="-9" y="102"/>
      <point x="20" y="187"/>
    </contour>
  </outline>
</glyph>
<glyph name="K" format="2">
  <advance width="591"/>
  <unicode hex="004B"/>
  <outline>
    <contour>
      <point x="170" y="526" type="curve" smooth="yes"/>
      <point x="170" y="488"/>
      <point x="170" y="458"/>
      <point x="170" y="432" type="curve" smooth="yes"/>
      <point x="170" y="328"/>
      <point x="170" y="246"/>
      <point x="170" y="176" type="curve" smooth="yes"/>
      <point x="170" y="147"/>
      <point x="170" y="119"/>
      <point x="170" y="102" type="curve" smooth="yes"/>
      <point x="170" y="34"/>
      <point x="80" y="35"/>
      <point x="80" y="102" type="curve" smooth="yes"/>
      <point x="80" y="128"/>
      <point x="80" y="156"/>
      <point x="80" y="176" type="curve" smooth="yes"/>
      <point x="80" y="281"/>
      <point x="80" y="363"/>
      <point x="80" y="432" type="curve" smooth="yes"/>
      <point x="80" y="471"/>
      <point x="80" y="501"/>
      <point x="80" y="526" type="curve" smooth="yes"/>
      <point x="80" y="594"/>
      <point x="170" y="594"/>
    </contour>
    <contour>
      <point x="532" y="488" type="curve" smooth="yes"/>
      <point x="490" y="461"/>
      <point x="451" y="435"/>
      <point x="409" y="409" type="curve" smooth="yes"/>
      <point x="374" y="388"/>
      <point x="297" y="340"/>
      <point x="263" y="321" type="curve" smooth="yes"/>
      <point x="259" y="319"/>
      <point x="276" y="314"/>
      <point x="280" y="311" type="curve" smooth="yes"/>
      <point x="334" y="277"/>
      <point x="458" y="195"/>
      <point x="538" y="139" type="curve" smooth="yes"/>
      <point x="594" y="101"/>
      <point x="543" y="27"/>
      <point x="488" y="65" type="curve" smooth="yes"/>
      <point x="408" y="119"/>
      <point x="286" y="201"/>
      <point x="232" y="235" type="curve" smooth="yes"/>
      <point x="139" y="295"/>
      <point x="123" y="342"/>
      <point x="219" y="399" type="curve" smooth="yes"/>
      <point x="251" y="418"/>
      <point x="328" y="466"/>
      <point x="361" y="485" type="curve" smooth="yes"/>
      <point x="403" y="511"/>
      <point x="442" y="537"/>
      <point x="482" y="564" type="curve" smooth="yes"/>
      <point x="539" y="601"/>
      <point x="588" y="526"/>
    </contour>
  </outline>
</glyph>
<glyph name="N" format="2">
  <advance width="688"/>
  <unicode hex="004E"/>
  <outline>
    <contour>
      <point x="80" y="104" type="curve" smooth="yes"/>
      <point x="80" y="139"/>
      <point x="80" y="168"/>
      <point x="80" y="192" type="curve" smooth="yes"/>
      <point x="80" y="257"/>
      <point x="80" y="331"/>
      <point x="80" y="385" type="curve" smooth="yes"/>
      <point x="80" y="420"/>
      <point x="80" y="445"/>
      <point x="80" y="464" type="curve" smooth="yes"/>
      <point x="80" y="576"/>
      <point x="124" y="600"/>
      <point x="219" y="508" type="curve" smooth="yes"/>
      <point x="242" y="486"/>
      <point x="263" y="465"/>
      <point x="282" y="446" type="curve" smooth="yes"/>
      <point x="339" y="388"/>
      <point x="410" y="315"/>
      <point x="471" y="253" type="curve" smooth="yes"/>
      <point x="492" y="232"/>
      <point x="513" y="210"/>
      <point x="530" y="194" type="curve" smooth="yes"/>
      <point x="535" y="188"/>
      <point x="518" y="169"/>
      <point x="518" y="175" type="curve" smooth="yes"/>
      <point x="518" y="194"/>
      <point x="518" y="216"/>
      <point x="518" y="236" type="curve" smooth="yes"/>
      <point x="518" y="315"/>
      <point x="518" y="397"/>
      <point x="518" y="441" type="curve" smooth="yes"/>
      <point x="518" y="476"/>
      <point x="518" y="504"/>
      <point x="518" y="528" type="curve" smooth="yes"/>
      <point x="518" y="596"/>
      <point x="608" y="596"/>
      <point x="608" y="528" type="curve" smooth="yes"/>
      <point x="608" y="493"/>
      <point x="608" y="465"/>
      <point x="608" y="441" type="curve" smooth="yes"/>
      <point x="608" y="375"/>
      <point x="608" y="289"/>
      <point x="608" y="236" type="curve" smooth="yes"/>
      <point x="608" y="206"/>
      <point x="608" y="188"/>
      <point x="608" y="175" type="curve" smooth="yes"/>
      <point x="608" y="53"/>
      <point x="562" y="34"/>
      <point x="468" y="128" type="curve" smooth="yes"/>
      <point x="449" y="146"/>
      <point x="430" y="166"/>
      <point x="407" y="189" type="curve" smooth="yes"/>
      <point x="350" y="247"/>
      <point x="279" y="320"/>
      <point x="218" y="382" type="curve" smooth="yes"/>
      <point x="190" y="410"/>
      <point x="171" y="429"/>
      <point x="157" y="444" type="curve" smooth="yes"/>
      <point x="152" y="448"/>
      <point x="170" y="469"/>
      <point x="170" y="464" type="curve" smooth="yes"/>
      <point x="170" y="436"/>
      <point x="170" y="409"/>
      <point x="170" y="385" type="curve" smooth="yes"/>
      <point x="170" y="305"/>
      <point x="170" y="235"/>
      <point x="170" y="192" type="curve" smooth="yes"/>
      <point x="170" y="157"/>
      <point x="170" y="128"/>
      <point x="170" y="104" type="curve" smooth="yes"/>
      <point x="170" y="37"/>
      <point x="80" y="37"/>
    </contour>
  </outline>
</glyph>
<glyph name="O" format="2">
  <advance width="732"/>
  <unicode hex="004F"/>
  <outline>
    <contour>
      <point x="302" y="58" type="curve" smooth="yes"/>
      <point x="260" y="64"/>
      <point x="227" y="73"/>
      <point x="191" y="90" type="curve" smooth="yes"/>
      <point x="100" y="134"/>
      <point x="45" y="217"/>
      <point x="45" y="314" type="curve" smooth="yes"/>
      <point x="45" y="462"/>
      <point x="176" y="574"/>
      <point x="368" y="574" type="curve" smooth="yes"/>
      <point x="559" y="574"/>
      <point x="687" y="462"/>
      <point x="687" y="314" type="curve" smooth="yes"/>
      <point x="687" y="220"/>
      <point x="635" y="140"/>
      <point x="548" y="94" type="curve" smooth="yes"/>
      <point x="512" y="76"/>
      <point x="475" y="64"/>
      <point x="434" y="58" type="curve" smooth="yes"/>
      <point x="367" y="49"/>
      <point x="355" y="138"/>
      <point x="422" y="148" type="curve" smooth="yes"/>
      <point x="453" y="152"/>
      <point x="480" y="160"/>
      <point x="506" y="174" type="curve" smooth="yes"/>
      <point x="563" y="204"/>
      <point x="597" y="252"/>
      <point x="597" y="314" type="curve" smooth="yes"/>
      <point x="597" y="417"/>
      <point x="501" y="484"/>
      <point x="368" y="484" type="curve" smooth="yes"/>
      <point x="235" y="484"/>
      <point x="135" y="417"/>
      <point x="135" y="314" type="curve" smooth="yes"/>
      <point x="135" y="251"/>
      <point x="170" y="200"/>
      <point x="231" y="172" type="curve" smooth="yes"/>
      <point x="257" y="159"/>
      <point x="282" y="152"/>
      <point x="314" y="148" type="curve" smooth="yes"/>
      <point x="381" y="139"/>
      <point x="369" y="49"/>
    </contour>
  </outline>
</glyph>
<glyph name="S" format="2">
  <advance width="521"/>
  <unicode hex="0053"/>
  <outline>
    <contour>
      <point x="116" y="169" type="curve" smooth="yes"/>
      <point x="165" y="153"/>
      <point x="214" y="145"/>
      <point x="258" y="145" type="curve" smooth="yes"/>
      <point x="317" y="145"/>
      <point x="384" y="161"/>
      <point x="384" y="203" type="curve" smooth="yes"/>
      <point x="384" y="242"/>
      <point x="297" y="263"/>
      <point x="253" y="276" type="curve" smooth="yes"/>
      <point x="144" y="307"/>
      <point x="63" y="339"/>
      <point x="63" y="430" type="curve" smooth="yes"/>
      <point x="63" y="515"/>
      <point x="140" y="572"/>
      <point x="271" y="573" type="curve" smooth="yes"/>
      <point x="316" y="573"/>
      <point x="368" y="567"/>
      <point x="422" y="553" type="curve" smooth="yes"/>
      <point x="488" y="536"/>
      <point x="465" y="448"/>
      <point x="400" y="465" type="curve" smooth="yes"/>
      <point x="354" y="477"/>
      <point x="310" y="483"/>
      <point x="271" y="483" type="curve" smooth="yes"/>
      <point x="213" y="482"/>
      <point x="153" y="468"/>
      <point x="153" y="430" type="curve" smooth="yes"/>
      <point x="153" y="395"/>
      <point x="236" y="374"/>
      <point x="277" y="362" type="curve" smooth="yes"/>
      <point x="387" y="331"/>
      <point x="474" y="298"/>
      <point x="474" y="203" type="curve" smooth="yes"/>
      <point x="474" y="112"/>
      <point x="387" y="55"/>
      <point x="258" y="55" type="curve" smooth="yes"/>
      <point x="206" y="55"/>
      <point x="147" y="65"/>
      <point x="88" y="83" type="curve" smooth="yes"/>
      <point x="24" y="103"/>
      <point x="51" y="189"/>
    </contour>
  </outline>
</glyph>
<glyph name="bracketright" format="2">
  <advance width="430"/>
  <unicode hex="005D"/>
  <outline>
    <contour>
      <point x="85" y="41" type="curve" smooth="yes"/>
      <point x="272" y="41" type="line"/>
      <point x="227" y="-4" type="line"/>
      <point x="227" y="587" type="line"/>
      <point x="272" y="542" type="line"/>
      <point x="85" y="542" type="line" smooth="yes"/>
      <point x="17" y="542"/>
      <point x="18" y="632"/>
      <point x="85" y="632" type="curve" smooth="yes"/>
      <point x="272" y="632" type="line" smooth="yes"/>
      <point x="297" y="632"/>
      <point x="317" y="612"/>
      <point x="317" y="587" type="curve" smooth="yes"/>
      <point x="317" y="-4" type="line" smooth="yes"/>
      <point x="317" y="-29"/>
      <point x="297" y="-49"/>
      <point x="272" y="-49" type="curve" smooth="yes"/>
      <point x="85" y="-49" type="line" smooth="yes"/>
      <point x="18" y="-49"/>
      <point x="18" y="41"/>
    </contour>
  </outline>
</glyph>
<glyph name="a" format="2">
  <advance width="584"/>
  <unicode hex="0061"/>
  <outline>
    <contour>
      <point x="519.0249260522854" y="392.8277158182081" type="curve" smooth="yes"/>
      <point x="519.0165051256034" y="344.57935972594544"/>
      <point x="519.0067442322221" y="288.6535599386648"/>
      <point x="518.997158034063" y="233.72869005123493" type="curve" smooth="yes"/>
      <point x="518.9776756565312" y="122.10288873969543"/>
      <point x="422.6812415132026" y="52.26493526370572"/>
      <point x="279.97334288527685" y="52.26493526370572" type="curve" smooth="yes"/>
      <point x="138.19176247501397" y="52.26493526370572"/>
      <point x="38.980524522747146" y="138.39950994098572"/>
      <point x="38.999880439996005" y="249.30074720028796" type="curve" smooth="yes"/>
      <point x="39.019236357244864" y="360.20198445959034"/>
      <point x="137.2447068449891" y="445.61374439273465"/>
      <point x="279.026287255252" y="445.61374439273465" type="curve" smooth="yes"/>
      <point x="419.8344280270007" y="445.61374439273465"/>
      <point x="519.0195146141335" y="361.82245894084645"/>
      <point x="519.0001199560066" y="250.69925279971207" type="curve" smooth="yes"/>
      <point x="518.9945561294483" y="218.82087466732415"/>
      <point x="518.9878889252326" y="180.6206081986168"/>
      <point x="518.9850635194593" y="164.43222549495326" type="curve" smooth="yes"/>
      <point x="518.9801011876644" y="136.0001585120127"/>
      <point x="518.9760521205453" y="112.80071270561616"/>
      <point x="518.9727221780271" y="93.72154737629846" type="curve" smooth="yes"/>
      <point x="518.9609412058153" y="26.22154840438222"/>
      <point x="428.96094257659365" y="26.23725636733127"/>
      <point x="428.97272354880545" y="93.73725533924751" type="curve" smooth="yes"/>
      <point x="428.9776858806002" y="122.16932232218798"/>
      <point x="428.9817349477192" y="145.36876812858458"/>
      <point x="428.9850648902377" y="164.44793345790222" type="curve" smooth="yes"/>
      <point x="428.9892753535787" y="188.57211150403356"/>
      <point x="428.9963877548704" y="229.32316933282"/>
      <point x="429.000121326785" y="250.71496076266104" type="curve" smooth="yes"/>
      <point x="429.0114725447147" y="315.7526490632877"/>
      <point x="361.43784005073786" y="355.61374439273465"/>
      <point x="279.026287255252" y="355.61374439273465" type="curve" smooth="yes"/>
      <point x="195.5467223892417" y="355.61374439273465"/>
      <point x="129.01127563811502" y="314.5825694434459"/>
      <point x="128.99987906921768" y="249.28503923733894" type="curve" smooth="yes"/>
      <point x="128.9884880424474" y="184.0192630800916"/>
      <point x="196.53437395257626" y="142.26493526370572"/>
      <point x="279.97334288527685" y="142.26493526370572" type="curve" smooth="yes"/>
      <point x="361.68803571059595" y="142.26493526370572"/>
      <point x="428.98600377497905" y="169.82734679801789"/>
      <point x="428.9971594048413" y="233.7443980141839" type="curve" smooth="yes"/>
      <point x="429.0114449054628" y="315.59428781355797"/>
      <point x="429.01927661151745" y="360.46665837383006"/>
      <point x="429.0249274230638" y="392.8434237811571" type="curve" smooth="yes"/>
      <point x="429.0367083952754" y="460.34342275307336"/>
      <point x="519.036707024497" y="460.32771479012433"/>
    </contour>
  </outline>
</glyph>
<glyph name="g" format="2">
  <advance width="556"/>
  <unicode hex="0067"/>
  <outline>
    <contour>
      <point x="132" y="48" type="curve" smooth="yes"/>
      <point x="230" y="15"/>
      <point x="400" y="27"/>
      <point x="400" y="108" type="curve" smooth="yes"/>
      <point x="400" y="174"/>
      <point x="400" y="227"/>
      <point x="400" y="271" type="curve" smooth="yes"/>
      <point x="400" y="324"/>
      <point x="336" y="356"/>
      <point x="264" y="356" type="curve" smooth="yes"/>
      <point x="193" y="356"/>
      <point x="129" y="322"/>
      <point x="129" y="270" type="curve" smooth="yes"/>
      <point x="129" y="216"/>
      <point x="192" y="183"/>
      <point x="265" y="183" type="curve" smooth="yes"/>
      <point x="337" y="183"/>
      <point x="400" y="215"/>
      <point x="400" y="268" type="curve" smooth="yes"/>
      <point x="400" y="322"/>
      <point x="400" y="362"/>
      <point x="400" y="397" type="curve" smooth="yes"/>
      <point x="400" y="465"/>
      <point x="490" y="465"/>
      <point x="490" y="397" type="curve" smooth="yes"/>
      <point x="490" y="345"/>
      <point x="490" y="304"/>
      <point x="490" y="268" type="curve" smooth="yes"/>
      <point x="490" y="170"/>
      <point x="399" y="93"/>
      <point x="265" y="93" type="curve" smooth="yes"/>
      <point x="131" y="93"/>
      <point x="39" y="171"/>
      <point x="39" y="270" type="curve" smooth="yes"/>
      <point x="39" y="367"/>
      <point x="131" y="446"/>
      <point x="264" y="446" type="curve" smooth="yes"/>
      <point x="398" y="446"/>
      <point x="490" y="369"/>
      <point x="490" y="271" type="curve" smooth="yes"/>
      <point x="490" y="205"/>
      <point x="490" y="152"/>
      <point x="490" y="108" type="curve" smooth="yes"/>
      <point x="490" y="-38"/>
      <point x="281" y="-97"/>
      <point x="104" y="-38" type="curve" smooth="yes"/>
      <point x="40" y="-16"/>
      <point x="68" y="69"/>
    </contour>
  </outline>
</glyph>
<glyph name="h" format="2">
  <advance width="568"/>
  <unicode hex="0068"/>
  <outline>
    <contour>
      <point x="421" y="104" type="curve" smooth="yes"/>
      <point x="421" y="143"/>
      <point x="421" y="174"/>
      <point x="421" y="199" type="curve" smooth="yes"/>
      <point x="421" y="233"/>
      <point x="421" y="261"/>
      <point x="421" y="283" type="curve" smooth="yes"/>
      <point x="421" y="337"/>
      <point x="374" y="358"/>
      <point x="311" y="358" type="curve" smooth="yes"/>
      <point x="225" y="358"/>
      <point x="156" y="327"/>
      <point x="156" y="258" type="curve" smooth="yes"/>
      <point x="156" y="210"/>
      <point x="156" y="196"/>
      <point x="156" y="168" type="curve" smooth="yes"/>
      <point x="156" y="142"/>
      <point x="66" y="-95"/>
      <point x="66" y="168" type="curve" smooth="yes"/>
      <point x="66" y="226"/>
      <point x="66" y="444"/>
      <point x="66" y="460" type="curve" smooth="yes"/>
      <point x="66" y="516"/>
      <point x="66" y="542"/>
      <point x="66" y="566" type="curve" smooth="yes"/>
      <point x="66" y="634"/>
      <point x="156" y="634"/>
      <point x="156" y="566" type="curve" smooth="yes"/>
      <point x="156" y="531"/>
      <point x="156" y="498"/>
      <point x="156" y="460" type="curve" smooth="yes"/>
      <point x="156" y="437"/>
      <point x="156" y="207"/>
      <point x="156" y="168" type="curve" smooth="yes"/>
      <point x="156" y="142"/>
      <point x="66" y="-95"/>
      <point x="66" y="168" type="curve" smooth="yes"/>
      <point x="66" y="209"/>
      <point x="66" y="226"/>
      <point x="66" y="258" type="curve" smooth="yes"/>
      <point x="66" y="374"/>
      <point x="166" y="448"/>
      <point x="311" y="448" type="curve" smooth="yes"/>
      <point x="431" y="448"/>
      <point x="511" y="385"/>
      <point x="511" y="283" type="curve" smooth="yes"/>
      <point x="511" y="250"/>
      <point x="511" y="222"/>
      <point x="511" y="199" type="curve" smooth="yes"/>
      <point x="511" y="161"/>
      <point x="511" y="130"/>
      <point x="511" y="104" type="curve" smooth="yes"/>
      <point x="511" y="37"/>
      <point x="421" y="37"/>
    </contour>
  </outline>
</glyph>
<glyph name="l" format="2">
  <advance width="231"/>
  <unicode hex="006C"/>
  <outline>
    <contour>
      <point x="70" y="104" type="curve" smooth="yes"/>
      <point x="70" y="144"/>
      <point x="70" y="175"/>
      <point x="70" y="202" type="curve" smooth="yes"/>
      <point x="70" y="314"/>
      <point x="70" y="402"/>
      <point x="70" y="477" type="curve" smooth="yes"/>
      <point x="70" y="511"/>
      <point x="70" y="542"/>
      <point x="70" y="567" type="curve" smooth="yes"/>
      <point x="70" y="635"/>
      <point x="160" y="635"/>
      <point x="160" y="567" type="curve" smooth="yes"/>
      <point x="160" y="530"/>
      <point x="160" y="500"/>
      <point x="160" y="477" type="curve" smooth="yes"/>
      <point x="160" y="365"/>
      <point x="160" y="277"/>
      <point x="160" y="202" type="curve" smooth="yes"/>
      <point x="160" y="162"/>
      <point x="160" y="131"/>
      <point x="160" y="104" type="curve" smooth="yes"/>
      <point x="160" y="37"/>
      <point x="70" y="37"/>
    </contour>
  </outline>
</glyph>
<glyph name="v" format="2">
  <advance width="489"/>
  <unicode hex="0076"/>
  <outline>
    <contour>
      <point x="104" y="421" type="curve" smooth="yes"/>
      <point x="127" y="377"/>
      <point x="140" y="352"/>
      <point x="154" y="327" type="curve" smooth="yes"/>
      <point x="185" y="271"/>
      <point x="203" y="236"/>
      <point x="236" y="181" type="curve" smooth="yes"/>
      <point x="248" y="161"/>
      <point x="244" y="161"/>
      <point x="255" y="180" type="curve" smooth="yes"/>
      <point x="286" y="236"/>
      <point x="307" y="274"/>
      <point x="337" y="330" type="curve" smooth="yes"/>
      <point x="351" y="355"/>
      <point x="366" y="380"/>
      <point x="386" y="420" type="curve" smooth="yes"/>
      <point x="415" y="480"/>
      <point x="496" y="441"/>
      <point x="466" y="380" type="curve" smooth="yes"/>
      <point x="446" y="338"/>
      <point x="431" y="313"/>
      <point x="417" y="288" type="curve" smooth="yes"/>
      <point x="387" y="232"/>
      <point x="364" y="192"/>
      <point x="333" y="136" type="curve" smooth="yes"/>
      <point x="274" y="31"/>
      <point x="223" y="26"/>
      <point x="158" y="135" type="curve" smooth="yes"/>
      <point x="125" y="192"/>
      <point x="107" y="227"/>
      <point x="76" y="283" type="curve" smooth="yes"/>
      <point x="62" y="308"/>
      <point x="48" y="333"/>
      <point x="24" y="379" type="curve" smooth="yes"/>
      <point x="-7" y="438"/>
      <point x="72" y="481"/>
    </contour>
  </outline>
</glyph>
<glyph name="w" format="2">
  <advance width="725"/>
  <unicode hex="0077"/>
  <outline>
    <contour>
      <point x="110" y="420" type="curve" smooth="yes"/>
      <point x="125" y="390"/>
      <point x="139" y="360"/>
      <point x="154" y="330" type="curve" smooth="yes"/>
      <point x="172" y="294"/>
      <point x="188" y="258"/>
      <point x="208" y="218" type="curve" smooth="yes"/>
      <point x="217" y="201"/>
      <point x="221" y="193"/>
      <point x="229" y="177" type="curve" smooth="yes"/>
      <point x="231" y="173"/>
      <point x="212" y="172"/>
      <point x="215" y="178" type="curve" smooth="yes"/>
      <point x="222" y="192"/>
      <point x="225" y="199"/>
      <point x="232" y="214" type="curve" smooth="yes"/>
      <point x="248" y="250"/>
      <point x="263" y="285"/>
      <point x="277" y="320" type="curve" smooth="yes"/>
      <point x="284" y="337"/>
      <point x="288" y="345"/>
      <point x="297" y="366" type="curve" smooth="yes"/>
      <point x="347" y="481"/>
      <point x="372" y="482"/>
      <point x="426" y="368" type="curve" smooth="yes"/>
      <point x="435" y="348"/>
      <point x="439" y="339"/>
      <point x="446" y="324" type="curve" smooth="yes"/>
      <point x="465" y="284"/>
      <point x="479" y="249"/>
      <point x="493" y="216" type="curve" smooth="yes"/>
      <point x="502" y="197"/>
      <point x="504" y="190"/>
      <point x="510" y="175" type="curve" smooth="yes"/>
      <point x="513" y="170"/>
      <point x="494" y="171"/>
      <point x="497" y="176" type="curve" smooth="yes"/>
      <point x="504" y="192"/>
      <point x="508" y="199"/>
      <point x="518" y="219" type="curve" smooth="yes"/>
      <point x="536" y="257"/>
      <point x="550" y="289"/>
      <point x="571" y="331" type="curve" smooth="yes"/>
      <point x="584" y="355"/>
      <point x="601" y="390"/>
      <point x="614" y="419" type="curve" smooth="yes"/>
      <point x="643" y="480"/>
      <point x="724" y="442"/>
      <point x="696" y="381" type="curve" smooth="yes"/>
      <point x="681" y="350"/>
      <point x="664" y="315"/>
      <point x="651" y="289" type="curve" smooth="yes"/>
      <point x="630" y="249"/>
      <point x="618" y="219"/>
      <point x="598" y="179" type="curve" smooth="yes"/>
      <point x="588" y="159"/>
      <point x="586" y="154"/>
      <point x="577" y="136" type="curve" smooth="yes"/>
      <point x="520" y="23"/>
      <point x="474" y="32"/>
      <point x="428" y="139" type="curve" smooth="yes"/>
      <point x="420" y="156"/>
      <point x="418" y="163"/>
      <point x="411" y="180" type="curve" smooth="yes"/>
      <point x="397" y="213"/>
      <point x="383" y="248"/>
      <point x="366" y="284" type="curve" smooth="yes"/>
      <point x="357" y="300"/>
      <point x="353" y="310"/>
      <point x="344" y="330" type="curve" smooth="yes"/>
      <point x="342" y="335"/>
      <point x="382" y="335"/>
      <point x="379" y="330" type="curve" smooth="yes"/>
      <point x="370" y="310"/>
      <point x="368" y="303"/>
      <point x="361" y="286" type="curve" smooth="yes"/>
      <point x="345" y="249"/>
      <point x="330" y="214"/>
      <point x="314" y="178" type="curve" smooth="yes"/>
      <point x="307" y="161"/>
      <point x="304" y="154"/>
      <point x="297" y="140" type="curve" smooth="yes"/>
      <point x="245" y="26"/>
      <point x="209" y="19"/>
      <point x="147" y="139" type="curve" smooth="yes"/>
      <point x="141" y="153"/>
      <point x="137" y="159"/>
      <point x="128" y="178" type="curve" smooth="yes"/>
      <point x="108" y="218"/>
      <point x="90" y="256"/>
      <point x="74" y="290" type="curve" smooth="yes"/>
      <point x="59" y="320"/>
      <point x="45" y="350"/>
      <point x="30" y="380" type="curve" smooth="yes"/>
      <point x="0" y="440"/>
      <point x="80" y="480"/>
    </contour>
  </outline>
</glyph>
<glyph name="braceleft" format="2">
  <advance width="466"/>
  <unicode hex="007B"/>
  <outline>
    <contour>
      <point x="371" y="539" type="curve" smooth="yes"/>
      <point x="330" y="548"/>
      <point x="290" y="551"/>
      <point x="261" y="545" type="curve" smooth="yes"/>
      <point x="238" y="540"/>
      <point x="216" y="531"/>
      <point x="216" y="513" type="curve" smooth="yes"/>
      <point x="216" y="476"/>
      <point x="274" y="413"/>
      <point x="274" y="351" type="curve" smooth="yes"/>
      <point x="274" y="298"/>
      <point x="239" y="246"/>
      <point x="126" y="246" type="curve" smooth="yes"/>
      <point x="107" y="246"/>
      <point x="-114" y="336"/>
      <point x="126" y="336" type="curve" smooth="yes"/>
      <point x="239" y="336"/>
      <point x="274" y="284"/>
      <point x="274" y="231" type="curve" smooth="yes"/>
      <point x="274" y="165"/>
      <point x="216" y="106"/>
      <point x="216" y="69" type="curve" smooth="yes"/>
      <point x="216" y="52"/>
      <point x="234" y="43"/>
      <point x="255" y="38" type="curve" smooth="yes"/>
      <point x="285" y="31"/>
      <point x="326" y="33"/>
      <point x="371" y="43" type="curve" smooth="yes"/>
      <point x="437" y="58"/>
      <point x="457" y="-30"/>
      <point x="391" y="-45" type="curve" smooth="yes"/>
      <point x="330" y="-59"/>
      <point x="277" y="-59"/>
      <point x="233" y="-50" type="curve" smooth="yes"/>
      <point x="166" y="-33"/>
      <point x="126" y="12"/>
      <point x="126" y="69" type="curve" smooth="yes"/>
      <point x="126" y="137"/>
      <point x="184" y="195"/>
      <point x="184" y="231" type="curve" smooth="yes"/>
      <point x="184" y="243"/>
      <point x="151" y="246"/>
      <point x="126" y="246" type="curve" smooth="yes"/>
      <point x="107" y="246"/>
      <point x="-114" y="336"/>
      <point x="126" y="336" type="curve" smooth="yes"/>
      <point x="151" y="336"/>
      <point x="184" y="339"/>
      <point x="184" y="351" type="curve" smooth="yes"/>
      <point x="184" y="385"/>
      <point x="126" y="444"/>
      <point x="126" y="513" type="curve" smooth="yes"/>
      <point x="126" y="573"/>
      <point x="169" y="618"/>
      <point x="243" y="633" type="curve" smooth="yes"/>
      <point x="284" y="641"/>
      <point x="334" y="640"/>
      <point x="391" y="627" type="curve" smooth="yes"/>
      <point x="457" y="612"/>
      <point x="437" y="524"/>
    </contour>
  </outline>
</glyph>
<glyph name="braceright" format="2">
  <advance width="466"/>
  <unicode hex="007D"/>
  <outline>
    <contour>
      <point x="95" y="43" type="curve" smooth="yes"/>
      <point x="140" y="33"/>
      <point x="181" y="31"/>
      <point x="212" y="38" type="curve" smooth="yes"/>
      <point x="232" y="43"/>
      <point x="250" y="52"/>
      <point x="250" y="69" type="curve" smooth="yes"/>
      <point x="250" y="106"/>
      <point x="192" y="165"/>
      <point x="192" y="231" type="curve" smooth="yes"/>
      <point x="192" y="284"/>
      <point x="227" y="336"/>
      <point x="340" y="336" type="curve" smooth="yes"/>
      <point x="359" y="336"/>
      <point x="580" y="246"/>
      <point x="340" y="246" type="curve" smooth="yes"/>
      <point x="227" y="246"/>
      <point x="192" y="298"/>
      <point x="192" y="351" type="curve" smooth="yes"/>
      <point x="192" y="413"/>
      <point x="250" y="476"/>
      <point x="250" y="513" type="curve" smooth="yes"/>
      <point x="250" y="531"/>
      <point x="228" y="540"/>
      <point x="205" y="545" type="curve" smooth="yes"/>
      <point x="176" y="551"/>
      <point x="136" y="548"/>
      <point x="95" y="539" type="curve" smooth="yes"/>
      <point x="29" y="524"/>
      <point x="9" y="612"/>
      <point x="75" y="627" type="curve" smooth="yes"/>
      <point x="132" y="640"/>
      <point x="182" y="641"/>
      <point x="223" y="633" type="curve" smooth="yes"/>
      <point x="297" y="618"/>
      <point x="340" y="573"/>
      <point x="340" y="513" type="curve" smooth="yes"/>
      <point x="340" y="444"/>
      <point x="282" y="385"/>
      <point x="282" y="351" type="curve" smooth="yes"/>
      <point x="282" y="339"/>
      <point x="315" y="336"/>
      <point x="340" y="336" type="curve" smooth="yes"/>
      <point x="359" y="336"/>
      <point x="580" y="246"/>
      <point x="340" y="246" type="curve" smooth="yes"/>
      <point x="315" y="246"/>
      <point x="282" y="243"/>
      <point x="282" y="231" type="curve" smooth="yes"/>
      <point x="282" y="195"/>
      <point x="340" y="137"/>
      <point x="340" y="69" type="curve" smooth="yes"/>
      <point x="340" y="12"/>
      <point x="300" y="-33"/>
      <point x="232" y="-50" type="curve" smooth="yes"/>
      <point x="189" y="-59"/>
      <point x="136" y="-59"/>
      <point x="75" y="-45" type="curve" smooth="yes"/>
      <point x="9" y="-30"/>
      <point x="29" y="58"/>
    </contour>
  </outline>
</glyph>
<glyph name="exclamdown" format="2">
  <advance width="261"/>
  <unicode hex="00A1"/>
  <outline>
    <contour>
      <point x="177" y="282" type="curve" smooth="yes"/>
      <point x="177" y="31" type="line" smooth="yes"/>
      <point x="177" y="-37"/>
      <point x="87" y="-36"/>
      <point x="87" y="31" type="curve" smooth="yes"/>
      <point x="87" y="282" type="line" smooth="yes"/>
      <point x="87" y="350"/>
      <point x="177" y="350"/>
    </contour>
    <contour>
      <point x="136" y="379" type="curve" smooth="yes"/>
      <point x="47" y="387"/>
      <point x="47" y="492"/>
      <point x="136" y="500" type="curve" smooth="yes"/>
      <point x="203" y="506"/>
      <point x="211" y="416"/>
      <point x="144" y="410" type="curve" smooth="yes"/>
      <point x="141" y="410"/>
      <point x="141" y="469"/>
      <point x="144" y="469" type="curve" smooth="yes"/>
      <point x="211" y="463"/>
      <point x="203" y="373"/>
    </contour>
  </outline>
</glyph>
<glyph name="yen" format="2">
  <advance width="599"/>
  <unicode hex="00A5"/>
  <outline>
    <contour>
      <point x="489" y="142" type="curve" smooth="yes"/>
      <point x="337" y="142"/>
      <point x="212" y="142"/>
      <point x="110" y="142" type="curve" smooth="yes"/>
      <point x="42" y="142"/>
      <point x="43" y="232"/>
      <point x="110" y="232" type="curve" smooth="yes"/>
      <point x="262" y="232"/>
      <point x="387" y="232"/>
      <point x="489" y="232" type="curve" smooth="yes"/>
      <point x="557" y="232"/>
      <point x="557" y="142"/>
    </contour>
    <contour>
      <point x="544" y="497" type="curve" smooth="yes"/>
      <point x="503" y="453"/>
      <point x="443" y="387"/>
      <point x="409" y="351" type="curve" smooth="yes"/>
      <point x="348" y="284"/>
      <point x="321" y="256"/>
      <point x="225" y="256" type="curve" smooth="yes"/>
      <point x="171" y="256"/>
      <point x="145" y="256"/>
      <point x="110" y="256" type="curve" smooth="yes"/>
      <point x="42" y="256"/>
      <point x="43" y="346"/>
      <point x="110" y="346" type="curve" smooth="yes"/>
      <point x="162" y="346"/>
      <point x="189" y="346"/>
      <point x="225" y="346" type="curve" smooth="yes"/>
      <point x="292" y="346"/>
      <point x="300" y="365"/>
      <point x="343" y="411" type="curve" smooth="yes"/>
      <point x="378" y="449"/>
      <point x="438" y="516"/>
      <point x="478" y="559" type="curve" smooth="yes"/>
      <point x="524" y="608"/>
      <point x="590" y="547"/>
    </contour>
    <contour>
      <point x="121" y="559" type="curve" smooth="yes"/>
      <point x="145" y="535"/>
      <point x="171" y="507"/>
      <point x="196" y="480" type="curve" smooth="yes"/>
      <point x="234" y="440"/>
      <point x="270" y="399"/>
      <point x="297" y="370" type="curve" smooth="yes"/>
      <point x="343" y="317"/>
      <point x="345" y="292"/>
      <point x="345" y="233" type="curve" smooth="yes"/>
      <point x="345" y="181"/>
      <point x="345" y="139"/>
      <point x="345" y="104" type="curve" smooth="yes"/>
      <point x="345" y="36"/>
      <point x="255" y="37"/>
      <point x="255" y="104" type="curve" smooth="yes"/>
      <point x="255" y="156"/>
      <point x="255" y="198"/>
      <point x="255" y="233" type="curve" smooth="yes"/>
      <point x="255" y="270"/>
      <point x="259" y="277"/>
      <point x="229" y="310" type="curve" smooth="yes"/>
      <point x="204" y="339"/>
      <point x="168" y="378"/>
      <point x="130" y="418" type="curve" smooth="yes"/>
      <point x="105" y="445"/>
      <point x="79" y="473"/>
      <point x="57" y="497" type="curve" smooth="yes"/>
      <point x="10" y="546"/>
      <point x="75" y="608"/>
    </contour>
    <contour>
      <point x="361" y="346" type="curve" smooth="yes"/>
      <point x="419" y="346"/>
      <point x="452" y="346"/>
      <point x="489" y="346" type="curve" smooth="yes"/>
      <point x="557" y="346"/>
      <point x="557" y="256"/>
      <point x="489" y="256" type="curve" smooth="yes"/>
      <point x="434" y="256"/>
      <point x="400" y="256"/>
      <point x="361" y="256" type="curve" smooth="yes"/>
      <point x="294" y="256"/>
      <point x="294" y="346"/>
    </contour>
  </outline>
</glyph>
<glyph name="ordfeminine" format="2">
  <advance width="495"/>
  <unicode hex="00AA"/>
  <outline>
    <contour>
      <point x="399" y="157" type="curve" smooth="yes"/>
      <point x="281" y="157"/>
      <point x="185" y="157"/>
      <point x="106" y="157" type="curve" smooth="yes"/>
      <point x="38" y="157"/>
      <point x="39" y="247"/>
      <point x="106" y="247" type="curve" smooth="yes"/>
      <point x="224" y="247"/>
      <point x="320" y="247"/>
      <point x="399" y="247" type="curve" smooth="yes"/>
      <point x="467" y="247"/>
      <point x="467" y="157"/>
    </contour>
    <contour>
      <point x="431" y="530" type="curve" smooth="yes"/>
      <point x="431" y="496"/>
      <point x="431" y="464"/>
      <point x="431" y="426" type="curve" smooth="yes"/>
      <point x="431" y="343"/>
      <point x="358" y="278"/>
      <point x="247" y="278" type="curve" smooth="yes"/>
      <point x="135" y="278"/>
      <point x="61" y="345"/>
      <point x="61" y="428" type="curve" smooth="yes"/>
      <point x="61" y="511"/>
      <point x="135" y="577"/>
      <point x="246" y="577" type="curve" smooth="yes"/>
      <point x="349" y="577"/>
      <point x="431" y="515"/>
      <point x="431" y="430" type="curve" smooth="yes"/>
      <point x="431" y="365"/>
      <point x="431" y="346"/>
      <point x="431" y="326" type="curve" smooth="yes"/>
      <point x="431" y="259"/>
      <point x="341" y="259"/>
      <point x="341" y="326" type="curve" smooth="yes"/>
      <point x="341" y="356"/>
      <point x="341" y="387"/>
      <point x="341" y="430" type="curve" smooth="yes"/>
      <point x="341" y="466"/>
      <point x="290" y="487"/>
      <point x="246" y="487" type="curve" smooth="yes"/>
      <point x="196" y="487"/>
      <point x="151" y="466"/>
      <point x="151" y="428" type="curve" smooth="yes"/>
      <point x="151" y="390"/>
      <point x="196" y="368"/>
      <point x="247" y="368" type="curve" smooth="yes"/>
      <point x="297" y="368"/>
      <point x="341" y="388"/>
      <point x="341" y="426" type="curve" smooth="yes"/>
      <point x="341" y="482"/>
      <point x="341" y="507"/>
      <point x="341" y="530" type="curve" smooth="yes"/>
      <point x="341" y="598"/>
      <point x="431" y="598"/>
    </contour>
  </outline>
</glyph>
<glyph name="registered" format="2">
  <advance width="644"/>
  <unicode hex="00AE"/>
  <outline>
    <contour>
      <point x="244" y="146" type="curve" smooth="yes"/>
      <point x="115" y="169"/>
      <point x="33" y="254"/>
      <point x="33" y="357" type="curve" smooth="yes"/>
      <point x="33" y="480"/>
      <point x="149" y="576"/>
      <point x="322" y="576" type="curve" smooth="yes"/>
      <point x="495" y="576"/>
      <point x="611" y="480"/>
      <point x="611" y="357" type="curve" smooth="yes"/>
      <point x="611" y="256"/>
      <point x="531" y="172"/>
      <point x="404" y="146" type="curve" smooth="yes"/>
      <point x="338" y="132"/>
      <point x="320" y="221"/>
      <point x="386" y="234" type="curve" smooth="yes"/>
      <point x="464" y="250"/>
      <point x="521" y="295"/>
      <point x="521" y="357" type="curve" smooth="yes"/>
      <point x="521" y="435"/>
      <point x="432" y="486"/>
      <point x="322" y="486" type="curve" smooth="yes"/>
      <point x="212" y="486"/>
      <point x="123" y="435"/>
      <point x="123" y="357" type="curve" smooth="yes"/>
      <point x="123" y="294"/>
      <point x="181" y="249"/>
      <point x="260" y="234" type="curve" smooth="yes"/>
      <point x="326" y="222"/>
      <point x="310" y="134"/>
    </contour>
    <contour>
      <point x="206" y="289" type="curve" smooth="yes"/>
      <point x="206" y="323"/>
      <point x="206" y="350"/>
      <point x="206" y="374" type="curve" smooth="yes"/>
      <point x="206" y="440"/>
      <point x="243" y="474"/>
      <point x="317" y="474" type="curve" smooth="yes"/>
      <point x="396" y="474"/>
      <point x="436" y="428"/>
      <point x="436" y="384" type="curve" smooth="yes"/>
      <point x="436" y="335"/>
      <point x="403" y="310"/>
      <point x="367" y="298" type="curve" smooth="yes"/>
      <point x="244" y="254"/>
      <point x="248" y="385"/>
      <point x="333" y="385" type="curve" smooth="yes"/>
      <point x="363" y="385"/>
      <point x="385" y="383"/>
      <point x="442" y="319" type="curve" smooth="yes"/>
      <point x="486" y="268"/>
      <point x="419" y="209"/>
      <point x="374" y="259" type="curve" smooth="yes"/>
      <point x="355" y="281"/>
      <point x="343" y="295"/>
      <point x="333" y="295" type="curve" smooth="yes"/>
      <point x="331" y="295"/>
      <point x="334" y="381"/>
      <point x="337" y="382" type="curve" smooth="yes"/>
      <point x="339" y="383"/>
      <point x="346" y="382"/>
      <point x="346" y="384" type="curve" smooth="yes"/>
      <point x="346" y="386"/>
      <point x="320" y="384"/>
      <point x="317" y="384" type="curve" smooth="yes"/>
      <point x="303" y="384"/>
      <point x="296" y="387"/>
      <point x="296" y="374" type="curve" smooth="yes"/>
      <point x="296" y="339"/>
      <point x="296" y="312"/>
      <point x="296" y="289" type="curve" smooth="yes"/>
      <point x="296" y="222"/>
      <point x="206" y="222"/>
    </contour>
  </outline>
</glyph>
<glyph name="macron" format="2">
  <advance width="490"/>
  <unicode hex="00AF"/>
  <outline>
    <contour>
      <point x="370" y="489" type="curve" smooth="yes"/>
      <point x="305" y="489"/>
      <point x="163" y="489"/>
      <point x="120" y="489" type="curve" smooth="yes"/>
      <point x="52" y="489"/>
      <point x="53" y="579"/>
      <point x="120" y="579" type="curve" smooth="yes"/>
      <point x="185" y="579"/>
      <point x="327" y="579"/>
      <point x="370" y="579" type="curve" smooth="yes"/>
      <point x="438" y="579"/>
      <point x="438" y="489"/>
    </contour>
  </outline>
</glyph>
<glyph name="plusminus" format="2">
  <advance width="540"/>
  <unicode hex="00B1"/>
  <outline>
    <contour>
      <point x="315" y="467" type="curve" smooth="yes"/>
      <point x="315" y="374"/>
      <point x="315" y="296"/>
      <point x="315" y="234" type="curve" smooth="yes"/>
      <point x="315" y="167"/>
      <point x="225" y="167"/>
      <point x="225" y="234" type="curve" smooth="yes"/>
      <point x="225" y="327"/>
      <point x="225" y="405"/>
      <point x="225" y="467" type="curve" smooth="yes"/>
      <point x="225" y="535"/>
      <point x="315" y="535"/>
    </contour>
    <contour>
      <point x="460" y="298" type="curve" smooth="yes"/>
      <point x="308" y="298"/>
      <point x="182" y="298"/>
      <point x="80" y="298" type="curve" smooth="yes"/>
      <point x="12" y="298"/>
      <point x="13" y="388"/>
      <point x="80" y="388" type="curve" smooth="yes"/>
      <point x="232" y="388"/>
      <point x="358" y="388"/>
      <point x="460" y="388" type="curve" smooth="yes"/>
      <point x="528" y="388"/>
      <point x="528" y="298"/>
    </contour>
    <contour>
      <point x="460" y="86" type="curve" smooth="yes"/>
      <point x="308" y="86"/>
      <point x="182" y="86"/>
      <point x="80" y="86" type="curve" smooth="yes"/>
      <point x="12" y="86"/>
      <point x="13" y="176"/>
      <point x="80" y="176" type="curve" smooth="yes"/>
      <point x="232" y="176"/>
      <point x="358" y="176"/>
      <point x="460" y="176" type="curve" smooth="yes"/>
      <point x="528" y="176"/>
      <point x="528" y="86"/>
    </contour>
  </outline>
</glyph>
<glyph name="onehalf" format="2">
  <advance width="940"/>
  <unicode hex="00BD"/>
  <outline>
    <contour>
      <point x="73" y="557" type="curve" smooth="yes"/>
      <point x="224" y="579"/>
      <point x="235" y="531"/>
      <point x="235" y="466" type="curve" smooth="yes"/>
      <point x="235" y="397"/>
      <point x="235" y="342"/>
      <point x="235" y="296" type="curve" smooth="yes"/>
      <point x="235" y="229"/>
      <point x="145" y="229"/>
      <point x="145" y="296" type="curve" smooth="yes"/>
      <point x="145" y="364"/>
      <point x="145" y="419"/>
      <point x="145" y="466" type="curve" smooth="yes"/>
      <point x="145" y="478"/>
      <point x="115" y="472"/>
      <point x="87" y="467" type="curve" smooth="yes"/>
      <point x="20" y="458"/>
      <point x="7" y="547"/>
    </contour>
    <contour>
      <point x="646" y="498" type="curve" smooth="yes"/>
      <point x="270" y="74" type="line" smooth="yes"/>
      <point x="225" y="24"/>
      <point x="158" y="83"/>
      <point x="202" y="134" type="curve" smooth="yes"/>
      <point x="578" y="558" type="line" smooth="yes"/>
      <point x="623" y="608"/>
      <point x="690" y="549"/>
    </contour>
    <contour>
      <point x="842" y="65" type="curve" smooth="yes"/>
      <point x="803" y="65"/>
      <point x="772" y="65"/>
      <point x="746" y="65" type="curve" smooth="yes"/>
      <point x="575" y="65"/>
      <point x="549" y="134"/>
      <point x="677" y="205" type="curve" smooth="yes"/>
      <point x="697" y="216"/>
      <point x="783" y="267"/>
      <point x="783" y="275" type="curve" smooth="yes"/>
      <point x="783" y="301"/>
      <point x="681" y="298"/>
      <point x="641" y="281" type="curve" smooth="yes"/>
      <point x="578" y="254"/>
      <point x="543" y="337"/>
      <point x="605" y="363" type="curve" smooth="yes"/>
      <point x="741" y="421"/>
      <point x="873" y="363"/>
      <point x="873" y="275" type="curve" smooth="yes"/>
      <point x="873" y="228"/>
      <point x="842" y="194"/>
      <point x="721" y="127" type="curve" smooth="yes"/>
      <point x="714" y="123"/>
      <point x="737" y="155"/>
      <point x="746" y="155" type="curve" smooth="yes"/>
      <point x="785" y="155"/>
      <point x="816" y="155"/>
      <point x="842" y="155" type="curve" smooth="yes"/>
      <point x="910" y="155"/>
      <point x="910" y="65"/>
    </contour>
  </outline>
</glyph>
<glyph name="germandbls" format="2">
  <advance width="551"/>
  <unicode hex="00DF"/>
  <outline>
    <contour>
      <point x="242" y="148" type="curve" smooth="yes"/>
      <point x="343" y="134"/>
      <point x="422" y="182"/>
      <point x="422" y="228" type="curve" smooth="yes"/>
      <point x="422" y="256"/>
      <point x="399" y="276"/>
      <point x="367" y="288" type="curve" smooth="yes"/>
      <point x="344" y="296"/>
      <point x="315" y="301"/>
      <point x="284" y="303" type="curve" smooth="yes"/>
      <point x="169" y="310"/>
      <point x="172" y="376"/>
      <point x="269" y="399" type="curve" smooth="yes"/>
      <point x="290" y="404"/>
      <point x="318" y="412"/>
      <point x="339" y="425" type="curve" smooth="yes"/>
      <point x="352" y="432"/>
      <point x="369" y="446"/>
      <point x="369" y="459" type="curve" smooth="yes"/>
      <point x="369" y="499"/>
      <point x="320" y="521"/>
      <point x="266" y="521" type="curve" smooth="yes"/>
      <point x="205" y="521"/>
      <point x="159" y="500"/>
      <point x="159" y="458" type="curve" smooth="yes"/>
      <point x="159" y="314"/>
      <point x="159" y="200"/>
      <point x="159" y="104" type="curve" smooth="yes"/>
      <point x="159" y="36"/>
      <point x="69" y="37"/>
      <point x="69" y="104" type="curve" smooth="yes"/>
      <point x="69" y="248"/>
      <point x="69" y="362"/>
      <point x="69" y="458" type="curve" smooth="yes"/>
      <point x="69" y="544"/>
      <point x="141" y="611"/>
      <point x="266" y="611" type="curve" smooth="yes"/>
      <point x="382" y="611"/>
      <point x="459" y="544"/>
      <point x="459" y="459" type="curve" smooth="yes"/>
      <point x="459" y="414"/>
      <point x="431" y="375"/>
      <point x="385" y="347" type="curve" smooth="yes"/>
      <point x="356" y="330"/>
      <point x="320" y="318"/>
      <point x="289" y="311" type="curve" smooth="yes"/>
      <point x="286" y="310"/>
      <point x="285" y="393"/>
      <point x="288" y="393" type="curve" smooth="yes"/>
      <point x="331" y="391"/>
      <point x="368" y="384"/>
      <point x="399" y="372" type="curve" smooth="yes"/>
      <point x="471" y="344"/>
      <point x="512" y="291"/>
      <point x="512" y="228" type="curve" smooth="yes"/>
      <point x="512" y="144"/>
      <point x="413" y="34"/>
      <point x="230" y="58" type="curve" smooth="yes"/>
      <point x="163" y="67"/>
      <point x="175" y="156"/>
    </contour>
  </outline>
</glyph>
<glyph name="thorn" format="2">
  <advance width="584"/>
  <unicode hex="00FE"/>
  <outline>
    <contour>
      <point x="305" y="446" type="curve" smooth="yes"/>
      <point x="447" y="446"/>
      <point x="546" y="359"/>
      <point x="546" y="249" type="curve" smooth="yes"/>
      <point x="546" y="137"/>
      <point x="447" y="52"/>
      <point x="306" y="52" type="curve" smooth="yes"/>
      <point x="164" y="52"/>
      <point x="66" y="137"/>
      <point x="66" y="249" type="curve" smooth="yes"/>
      <point x="66" y="359"/>
      <point x="162" y="446"/>
    </contour>
    <contour>
      <point x="305" y="356" type="curve" smooth="yes"/>
      <point x="221" y="356"/>
      <point x="156" y="314"/>
      <point x="156" y="249" type="curve" smooth="yes"/>
      <point x="156" y="183"/>
      <point x="222" y="142"/>
      <point x="306" y="142" type="curve" smooth="yes"/>
      <point x="389" y="142"/>
      <point x="456" y="183"/>
      <point x="456" y="249" type="curve" smooth="yes"/>
      <point x="456" y="314"/>
      <point x="388" y="356"/>
    </contour>
    <contour>
      <point x="66" y="-15" type="curve" smooth="yes"/>
      <point x="66" y="565" type="line" smooth="yes"/>
      <point x="66" y="633"/>
      <point x="156" y="633"/>
      <point x="156" y="565" type="curve" smooth="yes"/>
      <point x="156" y="-15" type="line" smooth="yes"/>
      <point x="156" y="-82"/>
      <point x="66" y="-82"/>
    </contour>
  </outline>
</glyph>
<glyph name="quoteleft" format="2">
  <advance width="274"/>
  <unicode hex="2018"/>
  <outline>
    <contour>
      <point x="194" y="500" type="curve" smooth="yes"/>
      <point x="178" y="482"/>
      <point x="153" y="439"/>
      <point x="170" y="429" type="curve" smooth="yes"/>
      <point x="226" y="392"/>
      <point x="177" y="316"/>
      <point x="120" y="353" type="curve" smooth="yes"/>
      <point x="55" y="396"/>
      <point x="62" y="482"/>
      <point x="124" y="558" type="curve" smooth="yes"/>
      <point x="167" y="610"/>
      <point x="237" y="553"/>
    </contour>
  </outline>
</glyph>
<glyph name="quotedblright" format="2">
  <advance width="474"/>
  <unicode hex="201D"/>
  <outline>
    <contour>
      <point x="80" y="418" type="curve" smooth="yes"/>
      <point x="95" y="435"/>
      <point x="120" y="478"/>
      <point x="105" y="488" type="curve" smooth="yes"/>
      <point x="48" y="524"/>
      <point x="96" y="600"/>
      <point x="153" y="564" type="curve" smooth="yes"/>
      <point x="218" y="523"/>
      <point x="212" y="437"/>
      <point x="150" y="360" type="curve" smooth="yes"/>
      <point x="107" y="308"/>
      <point x="37" y="365"/>
    </contour>
    <contour>
      <point x="280" y="418" type="curve" smooth="yes"/>
      <point x="295" y="435"/>
      <point x="320" y="478"/>
      <point x="305" y="488" type="curve" smooth="yes"/>
      <point x="248" y="524"/>
      <point x="296" y="600"/>
      <point x="353" y="564" type="curve" smooth="yes"/>
      <point x="418" y="523"/>
      <point x="412" y="437"/>
      <point x="350" y="360" type="curve" smooth="yes"/>
      <point x="307" y="308"/>
      <point x="237" y="365"/>
    </contour>
  </outline>
</glyph>
<glyph name="guilsinglleft" format="2">
  <advance width="397"/>
  <unicode hex="2039"/>
  <outline>
    <contour>
      <point x="321" y="359" type="curve" smooth="yes"/>
      <point x="104" y="220" type="line"/>
      <point x="104" y="296" type="line"/>
      <point x="321" y="156" type="line" smooth="yes"/>
      <point x="378" y="119"/>
      <point x="329" y="44"/>
      <point x="273" y="80" type="curve" smooth="yes"/>
      <point x="56" y="220" type="line" smooth="yes"/>
      <point x="28" y="238"/>
      <point x="28" y="278"/>
      <point x="56" y="296" type="curve" smooth="yes"/>
      <point x="273" y="435" type="line" smooth="yes"/>
      <point x="330" y="471"/>
      <point x="378" y="396"/>
    </contour>
  </outline>
</glyph>
<glyph name="H" format="2">
  <advance width="688"/>
  <outline>
    <contour>
      <point x="185.06319084965816" y="438.09081935020345" type="curve" smooth="yes"/>
      <point x="185.0634377170613" y="408.3874525677548"/>
      <point x="185.06022908082443" y="382.9325789019314"/>
      <point x="185.05467456425325" y="351.10754306359354" type="curve" smooth="yes"/>
      <point x="185.00308775706654" y="55.53690852761669" type="line" smooth="yes"/>
      <point x="184.98121920237435" y="-69.760680900075"/>
      <point x="84.9980388271837" y="-34.32006658468783"/>
      <point x="84.98358996069067" y="48.465840715751256" type="curve" smooth="yes"/>
      <point x="84.9788971347902" y="75.35375266103502"/>
      <point x="84.97753802915453" y="121.28851107983867"/>
      <point x="84.98457726800524" y="161.62037899776428" type="curve" smooth="yes"/>
      <point x="85.00333610698223" y="269.10060973811954" type="line" smooth="yes"/>
      <point x="85.01294352391808" y="324.147054262086"/>
      <point x="132.3204858537076" y="373.53910524340097"/>
      <point x="235.01283665525443" y="373.53910524340097" type="curve" smooth="yes"/>
      <point x="347.1106942051452" y="373.53910524340097"/>
      <point x="386.97261203242294" y="373.539105243401"/>
      <point x="463.01283318261585" y="373.53910524340097" type="curve" smooth="yes"/>
      <point x="467.4626102545302" y="373.5391052434009"/>
      <point x="513.0202561800693" y="366.0828379684336"/>
      <point x="513.020730879589" y="368.80266588542275" type="curve" smooth="yes"/>
      <point x="513.0376385173511" y="465.67629490797975" type="line" smooth="yes"/>
      <point x="513.0597417415645" y="592.3184416565532"/>
      <point x="613.0429120201958" y="554.2465617228207"/>
      <point x="613.0572597271412" y="472.0402559386587" type="curve" smooth="yes"/>
      <point x="613.0619525530417" y="445.1523439933748"/>
      <point x="613.0630647498446" y="399.2171157256188"/>
      <point x="613.0561490064124" y="359.5928244378323" type="curve" smooth="yes"/>
      <point x="613.0049324394686" y="66.14351024541487" type="line" smooth="yes"/>
      <point x="612.9991019028112" y="32.73699579757851"/>
      <point x="612.9945633284146" y="15.754284425360822"/>
      <point x="612.9888568457284" y="14.332730619069922" type="curve" smooth="yes"/>
      <point x="612.6877899770137" y="-60.66666510343282"/>
      <point x="512.6885956803434" y="-60.265242611813306"/>
      <point x="512.989662549058" y="14.734153110689432" type="curve" smooth="yes"/>
      <point x="512.9953117108261" y="16.141427583470893"/>
      <point x="512.9991619929232" y="33.09001342721555"/>
      <point x="513.0049339625557" y="66.1609635375804" type="curve" smooth="yes"/>
      <point x="513.0561505294995" y="359.6102777299975" type="line" smooth="yes"/>
      <point x="513.0630587003016" y="399.1911810422363"/>
      <point x="513.0619489375582" y="445.16433254176"/>
      <point x="513.0572612502283" y="472.0228026464931" type="curve" smooth="yes"/>
      <point x="513.0569168603799" y="473.99601113528934"/>
      <point x="613.0381675407862" y="468.6986492877433"/>
      <point x="613.037636994264" y="465.6588416158143" type="curve" smooth="yes"/>
      <point x="613.0207293565019" y="368.7852125932572" type="line" smooth="yes"/>
      <point x="613.0099302263168" y="306.9107540758367"/>
      <point x="564.2426003778538" y="273.5391052434009"/>
      <point x="463.01283318261585" y="273.53910524340097" type="curve" smooth="yes"/>
      <point x="349.69652065935696" y="273.539105243401"/>
      <point x="310.2354210188862" y="273.53910524340097"/>
      <point x="235.01283665525443" y="273.53910524340097" type="curve" smooth="yes"/>
      <point x="230.33679973222596" y="273.53910524340097"/>
      <point x="185.00377205208028" y="271.5896645263165"/>
      <point x="185.00333458389517" y="269.083156445954" type="curve" smooth="yes"/>
      <point x="184.98457574491817" y="161.60292570559884" type="line" smooth="yes"/>
      <point x="184.9775442139232" y="121.31522054849862"/>
      <point x="184.97890075027365" y="75.3417641126501"/>
      <point x="184.9835884376036" y="48.4832940079167" type="curve" smooth="yes"/>
      <point x="184.98393282745147" y="46.51008551912062"/>
      <point x="85.00256804146498" y="52.567884107009725"/>
      <point x="85.0030892801536" y="55.554361819782216" type="curve" smooth="yes"/>
      <point x="85.05467608734031" y="351.1249963557591" type="line" smooth="yes"/>
      <point x="85.06070048107046" y="385.64223001720086"/>
      <point x="85.0634586039443" y="405.8739034903611"/>
      <point x="85.06319085311186" y="438.0899882410399" type="curve" smooth="yes"/>
      <point x="85.06256752123925" y="513.0899882384497"/>
      <point x="185.06256751778554" y="513.0908193476132"/>
    </contour>
  </outline>
</glyph>
<glyph name="n" format="2">
  <advance width="600"/>
  <outline>
    <contour>
      <point x="436.98967675726874" y="12.480189298727339" type="curve" smooth="yes"/>
      <point x="436.9944853992679" y="16.012431518422183"/>
      <point x="436.99803019283297" y="26.602484025988083"/>
      <point x="437.0054281036008" y="68.98939066232663" type="curve" smooth="yes"/>
      <point x="437.02677862427856" y="191.31886380759934" type="line" smooth="yes"/>
      <point x="437.03597676860784" y="244.02034901716115"/>
      <point x="381.4035420336131" y="256.6609436004726"/>
      <point x="325.03161025413254" y="268.1889516086832" type="curve" smooth="yes"/>
      <point x="269.0840631461754" y="279.6301733433451"/>
      <point x="167.0117444069144" y="323.35511279084"/>
      <point x="167.00271727270774" y="265.5485411343221" type="curve" smooth="yes"/>
      <point x="166.9865501035021" y="163.01798184067508" type="line" smooth="yes"/>
      <point x="166.97737729869738" y="105.29220900540228"/>
      <point x="166.9786952026676" y="73.68876909727501"/>
      <point x="166.98395828184394" y="43.533546539610796" type="curve" smooth="yes"/>
      <point x="166.98427474819061" y="41.72032792828473"/>
      <point x="67.00361321135522" y="58.55853542359215"/>
      <point x="67.00419960487986" y="61.91832285046115" type="curve" smooth="yes"/>
      <point x="67.03776805357552" y="254.2513673332021" type="line" smooth="yes"/>
      <point x="67.04408533683657" y="290.4467344014594"/>
      <point x="67.04503768706222" y="307.52098536392725"/>
      <point x="67.04517209734436" y="339.09566727453466" type="curve" smooth="yes"/>
      <point x="67.04549136488885" y="414.0956672738551"/>
      <point x="167.04549136398276" y="414.0952415837958"/>
      <point x="167.04517209643828" y="339.0952415844754" type="curve" smooth="yes"/>
      <point x="167.04504866273666" y="310.0990978206564"/>
      <point x="167.04356791446287" y="287.4733959166338"/>
      <point x="167.03776653048845" y="254.23391404103654" type="curve" smooth="yes"/>
      <point x="167.0041980817928" y="61.9008695582956" type="line" smooth="yes"/>
      <point x="166.98009637306595" y="-76.19175005235081"/>
      <point x="66.99696707630734" y="-31.010082415443076"/>
      <point x="66.983959804931" y="43.51609324744541" type="curve" smooth="yes"/>
      <point x="66.97963962537561" y="68.26889889948596"/>
      <point x="66.9790219005466" y="115.64986882127224"/>
      <point x="66.98655134667439" y="163.0337499874342" type="curve" smooth="yes"/>
      <point x="67.00271849202119" y="265.56415723788604" type="line" smooth="yes"/>
      <point x="67.02856505746908" y="431.07641211568114"/>
      <point x="184.87739219546458" y="398.9199376746828"/>
      <point x="345.0668725843357" y="366.16133681676087" type="curve" smooth="yes"/>
      <point x="459.4869670654871" y="342.7625331241925"/>
      <point x="537.0454468985532" y="298.271470377211"/>
      <point x="537.0267771011916" y="191.3014105154338" type="curve" smooth="yes"/>
      <point x="537.0054265805138" y="68.97193737016107" type="line" smooth="yes"/>
      <point x="536.9980131505453" y="26.49611226291417"/>
      <point x="536.9944028222587" y="15.883705836183298"/>
      <point x="536.9895840927794" y="12.344053743912752" type="curve" smooth="yes"/>
      <point x="536.8874824266684" y="-62.65587675772022"/>
      <point x="436.88757509115777" y="-62.519741202905635"/>
    </contour>
  </outline>
</glyph>
